
<svg version="1.1" xmlns="http://www.w3.org/2000/svg" width="512" height="512">
<path d="M0 0 C3.82308087 3.11882913 4.32707181 6.03355572 4.8125 10.75 C4.90116598 12.83238382 4.96517772 14.91602029 5 17 C5.04769531 17.75539063 5.09539062 18.51078125 5.14453125 19.2890625 C5.06950326 27.30205206 -0.55189955 33.74217019 -5 40 C-5.76062744 41.07942871 -5.76062744 41.07942871 -6.53662109 42.18066406 C-17.42999387 57.59826032 -28.99631292 72.43547805 -41 87 C-41.52368164 87.63631348 -42.04736328 88.27262695 -42.58691406 88.92822266 C-44.07278512 90.72806963 -45.56589334 92.52157516 -47.0625 94.3125 C-47.50327881 94.84552734 -47.94405762 95.37855469 -48.39819336 95.92773438 C-50.71781518 98.68130363 -53.0140723 100.97949927 -56 103 C-56.34165949 100.8554766 -56.67287042 98.70928784 -57 96.5625 C-57.185625 95.36753906 -57.37125 94.17257813 -57.5625 92.94140625 C-57.706875 91.64074219 -57.85125 90.34007812 -58 89 C-58.08443359 88.26177002 -58.16886719 87.52354004 -58.25585938 86.76293945 C-58.53333561 82.51566118 -58.31632397 79.8256255 -55.65625 76.41015625 C-54.62559606 75.27444852 -53.57239727 74.15887753 -52.5 73.0625 C-51.39966771 71.86454179 -50.30071623 70.66531387 -49.203125 69.46484375 C-48.38811523 68.59255127 -48.38811523 68.59255127 -47.55664062 67.70263672 C-44.15445206 63.98135958 -41.1184955 59.95844437 -38 56 C-49.50088676 60.59963601 -60.74764312 65.55998658 -71.875 71 C-72.62469055 71.36516724 -73.3743811 71.73033447 -74.14678955 72.10656738 C-101.93892257 85.67146955 -128.82582439 100.99808952 -154 119 C-154.76054687 119.54269531 -155.52109375 120.08539063 -156.3046875 120.64453125 C-166.97479778 128.29317018 -177.20974879 136.25331443 -187 145 C-187.87785156 145.77859375 -188.75570312 146.5571875 -189.66015625 147.359375 C-192.12040307 149.55839117 -194.56267949 151.77561232 -197 154 C-198.01166734 154.91802541 -199.02338876 155.83599122 -200.03515625 156.75390625 C-207.43694601 163.48447496 -214.6019561 170.26516231 -221.1328125 177.85546875 C-223.13153645 180.15107429 -225.18945229 182.384796 -227.25 184.625 C-262.76002392 224.09391172 -298.75495299 276.36024119 -298.01513672 331.06469727 C-298.00111816 332.15838623 -297.98709961 333.2520752 -297.97265625 334.37890625 C-297.95468994 335.3644751 -297.93672363 336.35004395 -297.91821289 337.36547852 C-297.99241588 339.75570083 -298.31108619 341.72061001 -299 344 C-299.66 344 -300.32 344 -301 344 C-310.29049513 295.39080225 -291.50941684 245.14391634 -265 205 C-264.54238281 204.30583984 -264.08476562 203.61167969 -263.61328125 202.89648438 C-254.82872366 189.67043478 -245.18104998 177.18060153 -235 165 C-234.57025879 164.4838916 -234.14051758 163.9677832 -233.69775391 163.43603516 C-221.38990995 148.69918517 -208.31767739 134.796543 -194 122 C-193.16339844 121.22527344 -192.32679688 120.45054687 -191.46484375 119.65234375 C-185.17359043 113.85211508 -178.52955381 108.58047559 -171.75830078 103.35986328 C-170.09088342 102.0702889 -168.43289227 100.76960158 -166.77734375 99.46484375 C-133.33322024 73.2247078 -69.73127519 25 -26 25 C-25.86722656 25.78246094 -25.73445313 26.56492187 -25.59765625 27.37109375 C-25.42105469 28.38300781 -25.24445313 29.39492187 -25.0625 30.4375 C-24.88847656 31.44683594 -24.71445312 32.45617187 -24.53515625 33.49609375 C-24.25248903 35.9287438 -24.25248903 35.9287438 -23 37 C-19.37 32.05 -15.74 27.1 -12 22 C-19.31527488 21.75001759 -25.43907971 22.5608548 -32.5 24.375 C-46.07255763 27.67821567 -59.74166712 30.44778061 -73.4375 33.1875 C-74.50709961 33.40323669 -75.57669922 33.61897339 -76.67871094 33.84124756 C-87.27160203 35.97625044 -97.86895949 38.06223175 -108.53515625 39.80078125 C-109.65222206 39.98775826 -109.65222206 39.98775826 -110.79185486 40.17851257 C-115.5800215 40.92882358 -120.15326125 41.10465983 -125 41 C-126.53266582 37.93466836 -126.10276471 34.73245728 -126.0625 31.375 C-126.05798828 30.66859375 -126.05347656 29.9621875 -126.04882812 29.234375 C-126.03703875 27.48954725 -126.01910324 25.744763 -126 24 C-107.4483111 17.90357993 -88.57764441 13.36467549 -69.59967041 8.82893372 C-52.84922632 4.82008618 -52.84922632 4.82008618 -36.19921875 0.41796875 C-10.39737897 -6.70053312 -10.39737897 -6.70053312 0 0 Z " fill="#000000" transform="translate(405,85)"/>
</svg>
